<?xml version="1.0" encoding="utf-8"?><svg version="1.1" id="Layer_1" xmlns="http://www.w3.org/2000/svg" xmlns:xlink="http://www.w3.org/1999/xlink" x="0px" y="0px" viewBox="0 0 120.58 122.88" style="enable-background:new 0 0 120.58 122.88" xml:space="preserve"><g><path d="M72.6,17.95c-0.3-0.4-0.45-0.9-0.44-1.4c-0.34,0.27-0.7,0.52-1.08,0.76c-2.67,1.68-6.32,2.73-10.32,2.73 c-4,0-7.66-1.04-10.32-2.73c-0.58-0.36-1.11-0.76-1.59-1.18v3.1c0,3.63,2.97,5.98,6.78,7.04c1.6,0.45,3.34,0.67,5.08,0.67 c1.74,0,3.48-0.22,5.08-0.67c3.83-1.07,6.83-3.42,6.83-7.01V17.95L72.6,17.95z M60.86,31.62c4,0,7.66,1.04,10.32,2.73 c2.88,1.82,4.66,4.39,4.66,7.29c0,0.37-0.03,0.73-0.08,1.08v8.16c0,5.22-3.98,8.53-9.06,9.94c-1.86,0.52-3.87,0.78-5.89,0.78 c-2.01,0-4.03-0.26-5.89-0.77c-5.06-1.41-9.02-4.72-9.02-9.97v-8.22c0-0.09,0.01-0.17,0.02-0.25c-0.03-0.24-0.04-0.49-0.04-0.74 c0-2.9,1.78-5.48,4.66-7.29C53.21,32.66,56.86,31.62,60.86,31.62L60.86,31.62z M72.71,47.82c-0.46,0.4-0.97,0.77-1.52,1.12 c-2.67,1.68-6.32,2.73-10.32,2.73s-7.66-1.04-10.32-2.73c-0.58-0.36-1.11-0.76-1.59-1.18v3.1c0,3.63,2.97,5.98,6.78,7.04 c1.6,0.45,3.34,0.67,5.08,0.67c1.74,0,3.48-0.22,5.08-0.67c3.83-1.07,6.83-3.42,6.83-7.01V47.82L72.71,47.82z M69.57,36.92 c-2.2-1.39-5.28-2.25-8.7-2.25c-3.43,0-6.5,0.86-8.7,2.25c-1.99,1.26-3.23,2.93-3.23,4.72s1.23,3.46,3.23,4.72 c2.2,1.39,5.28,2.25,8.7,2.25c3.43,0,6.5-0.86,8.7-2.25c1.69-1.07,2.83-2.43,3.14-3.92v-0.28c0-0.17,0.03-0.34,0.08-0.5l0-0.03 C72.79,39.85,71.56,38.18,69.57,36.92L69.57,36.92z M30.03,16.71c3.2,0,6.17,0.66,8.6,1.79c0.12-0.12,0.26-0.22,0.41-0.31 l6.28-3.63c0.15-0.09,0.31-0.15,0.47-0.2v-3.35c0-0.09,0.01-0.17,0.02-0.25c-0.03-0.24-0.04-0.49-0.04-0.74 c0-2.9,1.78-5.48,4.66-7.29C53.1,1.04,56.75,0,60.75,0c4,0,7.66,1.04,10.32,2.73c2.88,1.82,4.66,4.39,4.66,7.29 c0,0.37-0.03,0.73-0.08,1.08v3.66l6.84,3.75c0.14,0.08,0.27,0.17,0.39,0.27c2.65-1.63,6.24-2.63,10.17-2.63 c4,0,7.66,1.04,10.32,2.73c2.88,1.82,4.66,4.39,4.66,7.29c0,0.37-0.03,0.73-0.08,1.08v5.26c0.16,0.04,0.32,0.11,0.48,0.19 l10.89,5.97c0.39,0.19,0.73,0.49,0.96,0.89c0.2,0.35,0.3,0.74,0.3,1.12h0.01v45.19c0,0.85-0.48,1.6-1.18,1.98l-57.43,34.7 c-0.34,0.21-0.72,0.31-1.09,0.32c-0.04,0-0.08,0-0.12,0c-0.56,0-1.08-0.21-1.47-0.55L1.1,88.27c-0.73-0.43-1.13-1.21-1.1-2.01 l0.69-44.52c-0.02-0.41,0.07-0.83,0.28-1.22c0.23-0.42,0.58-0.73,0.98-0.92l12.47-7.2c0.2-0.12,0.42-0.2,0.63-0.25v-4.43 c0-0.09,0.01-0.17,0.02-0.25c-0.03-0.24-0.04-0.49-0.04-0.74c0-2.9,1.78-5.48,4.66-7.29C22.37,17.75,26.03,16.71,30.03,16.71 L30.03,16.71z M42.64,21.27c1.5,1.56,2.37,3.43,2.37,5.46c0,0.37-0.03,0.73-0.08,1.08v8.16c0,5.22-3.98,8.53-9.06,9.94 c-1.86,0.52-3.87,0.78-5.89,0.78c-2.01,0-4.03-0.26-5.89-0.77c-4.67-1.3-8.39-4.21-8.95-8.77l-7.69,4.44l53.28,29.85l53.05-30.69 l-6.05-3.32c-0.89,4.06-4.45,6.71-8.85,7.93c-1.86,0.52-3.87,0.78-5.89,0.78s-4.03-0.26-5.89-0.77c-5.06-1.41-9.02-4.72-9.02-9.97 v-8.22c0-0.09,0.01-0.17,0.02-0.25c-0.03-0.24-0.04-0.49-0.04-0.74c0-1.52,0.49-2.96,1.37-4.24l-3.81-2.08 c-0.29,4.88-4.15,8-9.05,9.36c-1.86,0.52-3.87,0.78-5.89,0.78s-4.03-0.26-5.89-0.77c-5-1.39-8.91-4.63-9.01-9.76L42.64,21.27 L42.64,21.27z M41.88,32.9c-0.46,0.4-0.97,0.77-1.52,1.12c-2.67,1.68-6.32,2.73-10.32,2.73c-4,0-7.66-1.04-10.32-2.73 c-0.58-0.36-1.11-0.76-1.59-1.18v3.1c0,3.63,2.97,5.98,6.78,7.04c1.6,0.45,3.34,0.67,5.08,0.67c1.74,0,3.48-0.22,5.08-0.67 c3.83-1.07,6.83-3.42,6.83-7.01V32.9L41.88,32.9z M38.73,22.01c-2.2-1.39-5.28-2.25-8.7-2.25c-3.43,0-6.5,0.86-8.7,2.25 c-1.99,1.26-3.23,2.93-3.23,4.72c0,1.79,1.23,3.46,3.23,4.72c2.2,1.39,5.28,2.25,8.7,2.25c3.43,0,6.5-0.86,8.7-2.25 c1.69-1.07,2.83-2.43,3.14-3.92v-0.28c0-0.17,0.03-0.34,0.08-0.5l0-0.03C41.96,24.94,40.73,23.27,38.73,22.01L38.73,22.01z M104.89,32.34c-0.46,0.4-0.97,0.77-1.52,1.12c-2.67,1.68-6.32,2.73-10.32,2.73c-4,0-7.66-1.04-10.32-2.73 c-0.58-0.36-1.11-0.76-1.59-1.18v3.1c0,3.63,2.97,5.98,6.78,7.04c1.6,0.45,3.34,0.67,5.08,0.67c1.74,0,3.48-0.22,5.08-0.67 c3.83-1.07,6.83-3.42,6.83-7.01V32.34L104.89,32.34z M101.75,21.45c-2.2-1.39-5.28-2.25-8.7-2.25c-3.43,0-6.5,0.86-8.7,2.25 c-1.99,1.26-3.23,2.93-3.23,4.72c0,1.79,1.23,3.46,3.23,4.72c2.2,1.39,5.28,2.25,8.7,2.25c3.43,0,6.5-0.86,8.7-2.25 c1.69-1.07,2.83-2.43,3.14-3.92V26.7c0-0.17,0.03-0.34,0.08-0.5l0-0.03C104.97,24.38,103.74,22.7,101.75,21.45L101.75,21.45z M72.6,10.83v-0.28c0-0.17,0.03-0.34,0.08-0.5l0-0.03c0-1.79-1.23-3.46-3.23-4.72c-2.2-1.39-5.28-2.25-8.7-2.25 c-3.43,0-6.5,0.86-8.7,2.25c-1.99,1.26-3.23,2.93-3.23,4.72c0,1.79,1.23,3.46,3.23,4.72c2.2,1.39,5.28,2.25,8.7,2.25 c3.43,0,6.5-0.86,8.7-2.25C71.15,13.68,72.29,12.31,72.6,10.83L72.6,10.83z M62.99,75.29v41.42l53.1-32.09V44.57L62.99,75.29 L62.99,75.29z M58.51,116.7V75.31L5.1,45.4L4.49,85.07L58.51,116.7L58.51,116.7z"/></g></svg>